PathFileType	4	(X/Y/Z)	C:/Users/beibeiliu/ov580/test_trc/User3\sequence.37_training_dense_left.trc
DataRate	CameraRate	NumFrames	NumMarkers	Units	OrigDataRate	OrigDataStartFrame	OrigNumFrames
120	120	17	19	mm	120	35	274
Frame#	Time	ThumbCMC			ThumbMCP			ThumbIP			ThumbTip			IndexMCP			IndexPIP			IndexTip			MiddleMCP			MiddlePIP			MiddleTip			RingMCP			RingPIP			RingTip			PinkyMCP			PinkyPIP			PinkyTip			BackHand1			BackHand2			BackHand3	
		X0	Y0	Z0	X1	Y1	Z1	X2	Y2	Z2	X3	Y3	Z3	X4	Y4	Z4	X5	Y5	Z5	X6	Y6	Z6	X7	Y7	Z7	X8	Y8	Z8	X9	Y9	Z9	X10	Y10	Z10	X11	Y11	Z11	X12	Y12	Z12	X13	Y13	Z13	X14	Y14	Z14	X15	Y15	Z15	X16	Y16	Z16	X17	Y17	Z17	X18	Y18	Z18	
34	0.283333	-148.724	-10.248	13.2567	-116.281	-17.0828	3.02131	-98.2026	-34.2798	-13.4251	-97.7132	-59.1162	-25.9008	-139.358	-36.6309	-59.5488	-115.275	-62.1457	-67.6506	-105.145	-70.9855	-42.3591	-147.295	-56.522	-68.0439	-124.576	-80.5525	-64.6527	-120.368	-80.493	-24.8824	-160.772	-73.0378	-56.3455	-135.44	-91.9185	-47.9507	-136.37	-84.3241	-14.2096	-175.403	-85.2327	-40.1623	-148.879	-99.6269	-33.3275	-142.42	-91.1711	-5.71676	-194.775	-38.7441	-24.9749	-209.117	-31.0529	3.85772	-181.191	-14.8108	-11.4087	
35	0.291667	-153.142	-7.27346	17.1739	-120.285	-14.9279	4.84415	-100.595	-30.7145	-5.47543	-96.2047	-56.7941	-12.5347	-135.707	-41.149	-55.181	-105.803	-60.9238	-58.9182	-95.9031	-67.88	-33.0518	-143.176	-66.8113	-58.9225	-114.445	-81.7077	-52.4376	-109.275	-78.5972	-14.0363	-152.816	-80.9721	-45.8907	-125.978	-95.53	-33.7478	-125.851	-84.8804	-4.25395	-162.67	-94.1943	-32.5113	-138.19	-102.106	-19.5841	-135.72	-93.5048	6.19962	-194.419	-50.1103	-23.2343	-211.285	-39.8751	3.13594	-183.43	-19.8558	-7.86387	
36	0.3	-160.974	-4.44185	17.8683	-127.423	-9.65805	9.14681	-103.784	-22.8342	2.12992	-89.657	-48.7832	-2.82895	-135.085	-46.4884	-46.3272	-106.61	-59.3276	-51.184	-89.8943	-61.5894	-22.8404	-137.13	-65.9611	-47.5685	-105.598	-75.523	-42.8318	-101.813	-73.3196	-3.56953	-144.836	-81.8435	-33.2036	-116.967	-90.8301	-23.7923	-116.662	-74.6357	9.98629	-150.174	-94.0555	-18.8914	-126.992	-96.4846	-7.44468	-125.559	-84.1453	20.7854	-193.159	-60.3809	-12.6674	-210.407	-49.2252	6.89116	-187.653	-26.0039	-5.81714	
37	0.308333	-168.286	-4.49938	17.4265	-133.881	-2.81792	9.76554	-108.83	-11.7356	5.95413	-91.0075	-35.1566	3.55852	-130.759	-44.8924	-42.4172	-99.9812	-49.7194	-42.0376	-85.3276	-41.7987	-14.8519	-133.103	-64.0091	-37.8727	-99.5319	-67.2886	-32.0319	-96.6146	-58.7492	4.67662	-136.091	-79.7686	-23.3796	-104.8	-77.583	-10.7419	-111.102	-64.3401	21.6763	-145.045	-91.7824	-7.00308	-117.425	-90.1298	4.09621	-114.697	-71.9389	25.0515	-189.017	-60.5033	-5.75264	-209.844	-58.9484	14.1621	-189.663	-27.0996	-5.69778	
38	0.316667	-176.08	-4.92724	17.4866	-141.39	7.17535	11.8129	-112.02	0.101079	5.64857	-97.6043	-21.6873	9.09055	-133.516	-37.2121	-37.6434	-98.281	-34.6836	-39.083	-85.7948	-27.8562	-10.6226	-128.141	-54.3937	-35.1694	-94.4508	-54.2126	-26.2436	-96.1039	-41.4931	12.2359	-126.792	-70.0789	-18.9464	-98.6657	-66.1814	-5.65267	-104.11	-50.4437	23.442	-132.143	-83.0021	-0.391002	-108.166	-78.047	11.7697	-112.736	-56.7387	36.981	-182.887	-66.9018	0.707568	-204.562	-59.3724	17.1341	-193.121	-30.9456	-3.87439	
39	0.325	-180.87	-6.38071	16.5615	-151.145	7.67931	11.1774	-116.719	5.94513	4.40806	-97.082	-16.2922	9.48169	-127.938	-36.1837	-37.0855	-99.8788	-29.3007	-38.1406	-89.0085	-12.376	-8.73005	-120.243	-54.9662	-30.9835	-90.8932	-43.1719	-20.846	-95.5949	-29.5906	11.4374	-121.477	-63.8325	-14.2887	-94.0341	-54.618	-0.325244	-103.938	-37.7904	28.7005	-121.677	-76.8208	5.20759	-101.187	-63.7522	17.0012	-112.547	-44.5509	38.4723	-177.774	-67.4868	2.35129	-198.256	-66.4741	23.0744	-193.556	-35.1527	-0.463485	
40	0.333333	-183.155	-1.77541	13.6912	-153.186	10.9736	6.84727	-121.987	12.8011	1.61333	-99.3837	-5.08061	8.81122	-126.634	-35.0771	-35.316	-98.7255	-21.4475	-34.6985	-92.3801	-5.59788	-8.23083	-117.247	-49.8955	-27.6197	-89.7104	-34.937	-19.9081	-101.984	-14.4175	12.1127	-115.34	-61.1011	-9.42702	-90.311	-45.3842	0.808152	-105.72	-25.3704	26.958	-119.497	-69.7353	8.76023	-96.7774	-55.4928	19.9738	-108.898	-33.6205	37.6446	-167.95	-71.6563	6.87842	-193.449	-67.9747	26.5065	-191.066	-42.0047	1.14947	
41	0.341667	-186.286	-3.1608	12.7826	-159.588	12.9572	7.21938	-123.785	17.6381	-1.1913	-104.37	-0.992817	7.3336	-128.793	-29.8445	-34.5208	-99.7067	-17.3455	-36.4806	-95.9756	0.907025	-9.33443	-113.155	-45.6243	-26.4214	-88.2493	-26.0109	-18.4338	-103.881	-11.709	14.9616	-111.542	-56.9598	-7.3717	-89.2155	-35.8366	0.412101	-105.681	-17.8942	24.1325	-111.035	-66.0557	12.0575	-93.6288	-45.3162	20.5769	-110.594	-27.0778	41.5945	-164.337	-68.4147	9.41387	-188.439	-66.0471	27.7602	-189.83	-41.0694	2.87151	
42	0.35	-184.653	-5.84857	12.1897	-163.288	17.2349	0.823713	-129.774	16.7761	-3.4635	-110.696	6.02511	5.59289	-129.229	-25.6422	-36.6161	-99.0685	-8.29761	-35.0959	-103.179	11.4844	-7.78537	-109.465	-39.0735	-26.0488	-87.1135	-18.8771	-16.2057	-110.476	-1.53565	13.8184	-107.956	-50.1881	-6.09793	-86.607	-29.5775	5.65979	-107.235	-12.2776	24.6397	-106.824	-59.0372	13.3246	-91.1197	-36.3069	19.8047	-108.825	-19.4969	37.9026	-161.337	-66.5216	12.2469	-183.217	-67.2312	31.5737	-186.145	-43.196	4.667	
43	0.358333	-188.89	-6.72199	11.6607	-167.564	13.36	-1.44935	-139.724	22.2149	-7.50963	-112.458	10.294	2.61967	-125.236	-24.9248	-34.5418	-102.149	-3.14573	-40.3005	-104.467	16.5604	-13.1133	-110.678	-35.1832	-23.6739	-89.1967	-6.8621	-18.2049	-110.307	2.73026	11.6164	-103.498	-41.5515	-8.45139	-85.8022	-21.2774	1.09964	-108.304	-7.76681	26.1103	-104.078	-49.5194	10.201	-88.8895	-28.6318	18.4299	-105.29	-12.6926	36.1521	-154.788	-63.7269	10.7441	-176.564	-69.7298	34.4012	-184.707	-43.1843	4.96146	
44	0.366667	-189.836	-11.6354	14.1924	-173.063	15.3181	-5.39792	-140.618	24.2283	-14.9693	-119.696	13.0861	-1.54307	-129.119	-20.3365	-36.305	-104.206	-0.0619923	-41.7508	-110.749	20.7611	-13.2065	-113.226	-28.6734	-26.3027	-90.9009	-4.18573	-21.7612	-114.786	8.79273	9.51312	-101.046	-35.7858	-8.78246	-86.2929	-13.3193	-0.811805	-110.432	-2.20243	24.1666	-104.891	-45.3024	12.3248	-88.6657	-19.2658	17.7882	-110.299	-4.84008	33.8897	-151.669	-61.732	14.2011	-173.849	-65.5053	32.3288	-180.925	-44.4294	2.02333	
45	0.375	-190.587	-11.4492	11.7633	-173.95	12.5056	-7.53878	-147.945	21.9203	-13.0879	-124.196	19.045	-5.83881	-130.368	-19.554	-38.5146	-108.613	4.91849	-43.2307	-116.66	23.5985	-17.6066	-111.367	-24.9412	-29.1048	-93.5742	1.49429	-19.8389	-117.079	10.7021	7.43382	-105.787	-31.9556	-11.8157	-89.0855	-8.0371	-4.19298	-114.812	1.898	21.2589	-100.311	-39.8894	9.08499	-88.0061	-16.4187	15.2742	-106.518	-1.32002	31.5811	-147.601	-62.7539	17.4393	-172.661	-67.1387	34.7026	-180.399	-46.0972	5.97393	
46	0.383333	-190.859	-11.1098	8.37586	-176.844	14.0907	-8.68736	-148.883	22.5918	-16.3112	-123.2	14.7213	-5.14877	-133.051	-19.9472	-39.8538	-109.46	2.05344	-46.3786	-115.184	22.2734	-18.4877	-113.872	-24.8242	-32.405	-96.435	4.56376	-24.5584	-118.202	10.4124	5.00815	-103.636	-34.9519	-9.88052	-90.0362	-6.10297	-7.18532	-110.805	2.7648	19.3664	-100.387	-39.2267	6.6119	-89.2494	-17.2391	8.31306	-106.208	-2.52266	28.4982	-148.847	-60.2746	12.9218	-170.341	-66.1059	36.5261	-180.678	-45.118	5.08362	
47	0.391667	-191.964	-9.382	9.95603	-173.545	10.4734	-6.07526	-146.002	24.236	-20.2337	-120.243	18.6677	-9.99461	-131.703	-21.3624	-42.2482	-112.61	0.364562	-48.6731	-117.642	24.0137	-23.0548	-116.383	-29.0975	-30.6087	-95.3513	-1.37943	-26.3776	-119.948	9.81765	3.37525	-103.481	-34.3083	-13.5455	-91.2944	-9.01221	-9.15091	-112.199	2.12664	17.4158	-105.51	-41.1631	6.96396	-90.558	-17.1689	9.16347	-109.267	-3.01974	28.5638	-151.018	-60.2411	17.0746	-171.167	-65.7331	32.8552	-182.288	-46.4768	4.79418	
48	0.4	-193.744	-10.5967	13.3035	-174.594	10.7112	-4.49097	-147.426	24.2549	-19.9968	-121.871	13.9346	-8.64685	-135.262	-23.3111	-41.3754	-111.263	-1.45739	-47.2699	-116.025	21.7236	-23.3313	-116.889	-30.6849	-29.7859	-99.5618	-0.100103	-28.4294	-123.727	9.01618	2.73259	-110.887	-35.5467	-13.3464	-90.8826	-11.2344	-5.72141	-117.084	1.65491	13.8729	-103.184	-42.7549	5.90611	-92.3997	-16.8387	7.77461	-106.326	-3.18115	25.8526	-152.409	-62.9406	17.3434	-170.662	-65.6802	34.4772	-182.187	-48.7421	8.76717	
49	0.408333	-194.336	-7.95022	10.0226	-175.995	9.87574	-4.16361	-149.498	21.1608	-17.5428	-121.473	14.6001	-11.2199	-135.827	-23.8268	-41.9698	-114.524	-0.0276828	-47.0185	-119.765	20.9667	-24.9248	-119.124	-30.4781	-32.1361	-100.683	-3.71613	-27.3766	-123.045	4.35143	6.43429	-110.252	-38.1513	-14.0902	-94.6485	-10.9614	-7.94683	-114.703	-0.247409	16.4794	-113.127	-45.1823	7.01388	-95.3601	-22.008	3.60824	-106.15	-2.90681	27.8019	-154.449	-63.4816	13.4953	-175.996	-64.138	34.6651	-185.108	-47.0319	6.84315	
50	0.416667	-198.755	-10.1633	15.2539	-177.952	9.99433	-5.29111	-152.169	19.8845	-16.2572	-123.181	16.2881	-13.023	-143.961	-24.0916	-40.2605	-115.548	-3.7393	-46.4104	-122.425	19.9563	-26.7843	-122.241	-31.5222	-30.9851	-103.413	-4.3708	-27.5308	-123.702	4.21694	3.54567	-115.509	-39.2751	-14.0983	-96.2527	-12.7208	-6.67238	-119.953	-1.31942	15.9284	-110.673	-44.9863	4.87042	-94.0684	-24.2007	5.33613	-107.19	-3.65441	22.6662	-158.144	-64.1463	15.9142	-175.826	-68.6604	35.972	-187.108	-49.1448	7.45363	
